<?xml version="1.0" standalone="no"?>
<!DOCTYPE svg PUBLIC "-//W3C//DTD SVG 20010904//EN"
 "http://www.w3.org/TR/2001/REC-SVG-20010904/DTD/svg10.dtd">
<svg version="1.0" xmlns="http://www.w3.org/2000/svg"
 width="512.000000pt" height="512.000000pt" viewBox="0 0 512.000000 512.000000"
 preserveAspectRatio="xMidYMid meet">
<metadata>
Created by potrace 1.11, written by Peter Selinger 2001-2013
</metadata>
<g transform="translate(0.000000,512.000000) scale(0.100000,-0.100000)"
fill="#000000" stroke="none">
<path d="M2368 5115 c-1 -2 -32 -6 -68 -10 -35 -4 -74 -11 -87 -16 -13 -5 -23
-7 -23 -4 0 2 -18 -2 -40 -10 -22 -8 -40 -12 -40 -10 0 5 -117 -39 -180 -68
-155 -71 -310 -205 -383 -328 -125 -213 -105 -483 51 -679 41 -52 107 -118
140 -140 21 -14 23 -23 23 -110 1 -52 0 -102 0 -111 -1 -12 -19 -19 -73 -28
-243 -40 -447 -191 -560 -416 -35 -68 -50 -127 -113 -440 -64 -322 -67 -396
-20 -530 25 -72 90 -180 135 -225 69 -69 190 -137 285 -161 l45 -11 0 -47 c0
-89 9 -271 14 -279 2 -4 7 -23 10 -42 28 -179 143 -390 295 -541 75 -74 213
-179 237 -179 4 0 15 -6 23 -13 24 -20 142 -65 235 -89 69 -17 120 -21 351
-24 149 -2 380 -6 515 -8 210 -3 256 -6 322 -24 196 -53 330 -145 499 -342 35
-41 66 -77 69 -80 3 -3 32 -35 64 -72 32 -38 61 -68 65 -68 4 0 6 249 5 553
-1 527 -2 556 -22 630 -51 188 -169 342 -336 439 -98 57 -139 91 -175 145
l-31 46 68 23 c83 29 189 101 248 168 95 108 155 277 148 419 -2 32 -24 163
-50 290 -25 128 -48 243 -50 257 -9 52 -47 166 -71 215 -101 201 -288 349
-506 399 -38 9 -81 16 -96 16 l-27 0 0 108 1 107 77 73 c216 206 279 472 168
711 -111 237 -356 406 -695 482 -77 17 -139 23 -272 25 -94 1 -173 1 -175 -1z"/>
</g>
</svg>
